<svg xmlns="http://www.w3.org/2000/svg" viewBox="0 0 356.94 98.94"><defs><style>.cls-1{fill:#fff;}</style></defs><g id="Capa_2" data-name="Capa 2"><g id="Capa_1-2" data-name="Capa 1"><path class="cls-1" d="M95,32.86c3.6-5,8.14-8.18,14-9,6.47-.93,12.83-.7,17.86,4.39,3.65,3.69,4.77,8.46,4.8,13.38.12,17.8,0,35.61.09,53.41,0,1.74-.59,2.1-2.17,2.07-4.68-.08-9.36-.12-14,0-2,.06-2.33-.71-2.32-2.49.06-15.38,0-30.76,0-46.13,0-.72,0-1.44,0-2.16-.21-5.69-2.43-8.37-7.16-8.65-5.32-.31-9.1,2.6-9.94,7.8a32.23,32.23,0,0,0-.35,5.1c0,14.57-.06,29.14,0,43.71,0,2.27-.63,2.91-2.86,2.83-4.58-.18-9.18-.11-13.77,0-1.53,0-2-.48-2-2q.06-33.85,0-67.71c0-1.66.53-2.18,2.17-2.14,4.58.09,9.18.07,13.76,0,1.4,0,1.94.41,1.87,1.84C95,29,95,30.93,95,32.86Z"/><path class="cls-1" d="M145.36,67.47c0-8.9-.06-17.81,0-26.71,0-2-.3-2.93-2.59-2.78-2.11.13-4.91,1-6.24-.37s-.42-4.27-.45-6.49c-.08-5.86,0-5.84,5.86-5.87,3.86,0,3.31.48,3.39-3.5a64.22,64.22,0,0,1,.25-8.08c1.13-7.74,5-11.88,12.76-13.18,4.9-.81,9.87-.42,14.81-.18,1.09,0,1.36.53,1.35,1.5,0,3.41-.05,6.83,0,10.25,0,1.3-.6,1.34-1.66,1.36-8.44.18-9.51,1.43-9,10,.08,1.38.49,1.9,1.89,1.85,2.34-.08,4.68,0,7,0,1.26,0,1.78.39,1.75,1.7q-.09,4.71,0,9.44c0,1.32-.53,1.71-1.77,1.67-2.07-.06-4.15.13-6.2,0s-2.72.6-2.71,2.7c.08,16.46,0,32.91,0,49.37,0,1.71-.06,3.42,0,5.13.06,1.36-.4,1.91-1.84,1.89-5-.07-9.9-.1-14.84,0-2,0-1.9-1-1.9-2.38C145.37,85.63,145.36,76.55,145.36,67.47Z"/><path class="cls-1" d="M293.74,61.07c0,11.16-.05,22.31.05,33.47,0,2-.53,2.64-2.56,2.57-4.59-.15-9.19-.12-13.78,0-1.81,0-2.49-.4-2.48-2.36q.11-33.61,0-67.21c0-1.76.49-2.35,2.28-2.31,4.68.11,9.36.15,14,0,2.16-.08,2.49.76,2.48,2.66C293.7,38.94,293.74,50,293.74,61.07Z"/><path class="cls-1" d="M181.55,61.34c0-11.15.06-22.3-.05-33.45,0-2.18.65-2.75,2.74-2.68,4.49.15,9,.14,13.49,0,1.94-.06,2.41.62,2.41,2.45q-.09,33.45,0,66.91c0,2-.62,2.59-2.6,2.53-4.5-.14-9-.15-13.5,0-2.06.07-2.56-.59-2.54-2.58C181.6,83.47,181.55,72.41,181.55,61.34Z"/><path class="cls-1" d="M191.18.88c2.33,0,4.67.06,7,0,1.33,0,2,.27,1.94,1.77-.08,4-.07,8.08,0,12.12,0,1.35-.37,1.93-1.83,1.91-4.94-.07-9.89-.08-14.83,0-1.6,0-2-.62-1.93-2.07q.1-5.92,0-11.86c0-1.39.39-1.92,1.83-1.87C186,.94,188.57.88,191.18.88Z"/><path class="cls-1" d="M284.36,16.62c-2.34,0-4.68-.08-7,0-1.65.07-2.44-.29-2.37-2.2.14-3.86.1-7.73,0-11.6,0-1.51.43-2,2-2q7.43.14,14.86,0c1.58,0,2,.56,1.95,2-.08,4-.07,7.91,0,11.87,0,1.38-.41,1.94-1.83,1.89C289.41,16.56,286.88,16.62,284.36,16.62Z"/><path class="cls-1" d="M73.54,95.75Q61.34,49.64,49.17,3.54c-.41-1.55-1.23-1.7-2.51-1.69-6.58,0-13.15.06-19.72,0-1.51,0-2.23.39-2.63,1.9Q12.31,49.33.19,94.9c-.44,1.67-.21,2.23,1.63,2.2C7,97,12.26,97,17.48,97.11c1.81,0,2.51-.54,2.85-2.25,1.07-5.28,2.3-10.53,3.38-15.81.29-1.44.76-2.12,2.42-2.09,7.11.1,14.22.07,21.34,0,1.4,0,2,.34,2.32,1.84,1.08,5.46,2.38,10.88,3.56,16.32.21,1,.29,2,1.69,1.94,6.2,0,12.4,0,18.71,0C73.65,96.44,73.63,96.08,73.54,95.75ZM44.23,61.07q-7.41,0-14.83,0c-1.26,0-1.77-.29-1.46-1.71,2.82-13,5.58-26,8.37-38.93.07-.31.36-.57.7-1.08,2.91,13.5,5.75,26.74,8.64,40C46,60.68,45.54,61.08,44.23,61.07Z"/><path class="cls-1" d="M266.51,56.4c-.19-7.2-.89-14.36-3.75-21.1-3.92-9.26-12.54-13.59-22.43-11.48-4.71,1-8.14,3.8-11,7.6a5,5,0,0,1-.37-2.87c0-8.1-.07-16.19,0-24.28,0-1.87-.49-2.5-2.4-2.45-4.41.13-8.83.18-13.23,0-2.34-.1-3,.53-3,2.95.11,20,.06,40.1.06,60.16,0,9.89,0,19.78,0,29.67,0,1.76.32,2.58,2.33,2.52,4.5-.15,9-.09,13.5,0,1.38,0,2-.38,1.87-1.83s0-3.2,0-5.58a19,19,0,0,1,1.35,1.52c4.67,6.94,11.4,8.51,19.17,7.42,7.25-1,11.73-5.4,14.39-11.91a39.75,39.75,0,0,0,1.76-5.65C266.69,73,266.73,64.66,266.51,56.4ZM246.77,77.09c-.82,3.23-2.14,6.15-5.7,7.25-4.61,1.41-8.7-.77-10.36-5.67C229.18,74.2,229,69.52,229,64.84c-.07-6.55-.29-13.13,1.25-19.57,1.45-6,5.54-8.7,10.79-7.22,3,.85,4.49,3.12,5.37,5.89C248.16,49.6,248,55.46,248,62.72A55.29,55.29,0,0,1,246.77,77.09Z"/><path class="cls-1" d="M356.72,95.39c-1.61-4.19-1.74-8.6-1.75-13,0-13.58.13-27.17-.16-40.74-.2-9.42-5.12-14.87-14.31-17a49.85,49.85,0,0,0-16.1-.93c-13.21,1.21-19.79,8-20.75,21.06-.16,2.15.46,2.82,2.62,2.72,3.59-.17,7.21-.17,10.8,0,2.36.12,3.75-.19,3.4-3.07a8.14,8.14,0,0,1,.82-3.64c1.33-3.38,4.76-5.12,8.84-4.61,4.32.53,6.42,2.5,7,6.55.84,5.92-.94,8.65-6.78,10.36-5.68,1.66-11.54,2.77-17,5-5.87,2.44-9.84,6.53-11.14,12.89a33.23,33.23,0,0,0-.11,13.4c2,9.94,8.56,14.88,18.61,14.55,7-.22,12.67-2.42,16.48-9.29.68,2.35,1.15,4.05,1.66,5.75a2.1,2.1,0,0,0,2.33,1.71c4.77-.07,9.55,0,14.32,0C356.74,97.08,357.28,96.85,356.72,95.39ZM337,78.12c-.85,5.27-7,9.15-12.26,8A5.78,5.78,0,0,1,321,83.64a12,12,0,0,1,6-18c3.3-1.09,6.78-1.67,10.26-4.2C337.25,67.43,337.8,72.81,337,78.12Z"/></g></g></svg>