<svg xmlns="http://www.w3.org/2000/svg" viewBox="0 0 18.9 33.81"><defs><style>.cls-1{fill:#fff;}</style></defs><g id="Capa_2" data-name="Capa 2"><g id="Capa_1-2" data-name="Capa 1"><path class="cls-1" d="M17.71,4.51c1.16-1.17,1.78-2.57.42-3.88s-2.6-.33-3.63.7C10.07,5.75,5.67,10.2,1.23,14.61c-1.6,1.59-1.66,3,0,4.66,4.5,4.46,9,9,13.44,13.45a2.92,2.92,0,0,0,2.14,1.09,2,2,0,0,0,1.84-2.93,6.94,6.94,0,0,0-1.49-1.94C13.78,25.54,10.44,22.12,7,18.8c-1.4-1.34-1.35-2.3,0-3.64C10.67,11.68,14.17,8.08,17.71,4.51Z"/></g></g></svg>