<svg xmlns="http://www.w3.org/2000/svg" viewBox="0 0 18.9 33.81"><defs><style>.cls-1{fill:#fff;}</style></defs><g id="Capa_2" data-name="Capa 2"><g id="Capa_1-2" data-name="Capa 1"><path class="cls-1" d="M1.2,4.51C0,3.34-.59,1.94.78.63S3.37.3,4.4,1.33c4.44,4.42,8.83,8.87,13.28,13.28,1.6,1.59,1.66,3,0,4.66-4.5,4.46-9,9-13.44,13.45a2.92,2.92,0,0,1-2.13,1.09A2,2,0,0,1,.29,30.88a6.72,6.72,0,0,1,1.48-1.94c3.35-3.4,6.69-6.82,10.13-10.14,1.39-1.34,1.34-2.3-.05-3.64C8.23,11.68,4.73,8.08,1.2,4.51Z"/></g></g></svg>