<svg xmlns="http://www.w3.org/2000/svg" viewBox="0 0 65.72 66.18"><defs><style>.cls-1{fill:#fff;}</style></defs><g id="Capa_2" data-name="Capa 2"><g id="Capa_1-2" data-name="Capa 1"><path class="cls-1" d="M63.41,55c-4.91-4.91-9.77-9.86-14.74-14.71-1.25-1.22-1.28-2.24-.52-3.71a23.82,23.82,0,0,0,2.18-6.8,23.44,23.44,0,0,0-3-16C43,6.2,36,1.24,28.14.2a25.16,25.16,0,0,0-13.4,2A24.14,24.14,0,0,0,4.12,10.72,25.4,25.4,0,0,0,0,25a23.31,23.31,0,0,0,.53,5.8,23.8,23.8,0,0,0,1.84,5c6,12.49,19.89,18.46,33.13,13a3.34,3.34,0,0,1,4.2.82c4.75,4.94,9.77,9.63,14.47,14.62,2.58,2.72,7.61,2.65,9.89-.08S66.33,57.89,63.41,55ZM25.75,42.85A17.5,17.5,0,0,1,7.88,25a17.44,17.44,0,0,1,16.9-16.6,17.45,17.45,0,0,1,17.67,17.3A17.42,17.42,0,0,1,25.75,42.85Z"/></g></g></svg>