<svg xmlns="http://www.w3.org/2000/svg" viewBox="0 0 356.94 98.94"><defs><style>.cls-1{fill:#fff;}</style></defs><g id="Capa_2" data-name="Capa 2"><g id="Capa_1-2" data-name="Capa 1"><path d="M73.75,97.06c-6.31,0-12.51,0-18.71,0-1.4,0-1.48-.93-1.69-1.94-1.18-5.44-2.48-10.86-3.56-16.32-.3-1.5-.92-1.85-2.32-1.84-7.12.06-14.23.09-21.34,0-1.66,0-2.13.65-2.42,2.09-1.08,5.28-2.31,10.53-3.38,15.81-.34,1.71-1,2.3-2.85,2.25C12.26,97,7,97,1.82,97.1,0,97.13-.25,96.57.19,94.9Q12.31,49.33,24.31,3.73c.4-1.51,1.12-1.92,2.63-1.9,6.57.08,13.14,0,19.72,0,1.28,0,2.1.14,2.51,1.69Q61.29,49.65,73.54,95.75C73.63,96.08,73.65,96.44,73.75,97.06Z"/><path d="M228,89.68c0,2.38-.08,4,0,5.58s-.49,1.85-1.87,1.83c-4.5-.07-9-.13-13.5,0-2,.06-2.34-.76-2.33-2.52.07-9.89,0-19.78,0-29.67,0-20.06,0-40.11-.06-60.16,0-2.42.68-3,3-2.95,4.4.19,8.82.14,13.23,0,1.91-.05,2.42.58,2.4,2.45-.09,8.09,0,16.18,0,24.28a5,5,0,0,0,.37,2.87c2.89-3.8,6.32-6.59,11-7.6,9.89-2.11,18.51,2.22,22.43,11.48,2.86,6.74,3.56,13.9,3.75,21.1.22,8.26.18,16.55-1.83,24.66a39.75,39.75,0,0,1-1.76,5.65c-2.66,6.51-7.14,10.9-14.39,11.91-7.77,1.09-14.5-.48-19.17-7.42A19,19,0,0,0,228,89.68Z"/><path d="M95,32.86c3.6-5,8.14-8.18,14-9,6.47-.93,12.83-.7,17.86,4.39,3.65,3.69,4.77,8.46,4.8,13.38.12,17.8,0,35.61.09,53.41,0,1.74-.59,2.1-2.17,2.07-4.68-.08-9.36-.12-14,0-2,.06-2.33-.71-2.32-2.49.06-15.38,0-30.76,0-46.13,0-.72,0-1.44,0-2.16-.21-5.69-2.43-8.37-7.16-8.65-5.32-.31-9.1,2.6-9.94,7.8a32.23,32.23,0,0,0-.35,5.1c0,14.57-.06,29.14,0,43.71,0,2.27-.63,2.91-2.86,2.83-4.58-.18-9.18-.11-13.77,0-1.53,0-2-.48-2-2q.06-33.85,0-67.71c0-1.66.53-2.18,2.17-2.14,4.58.09,9.18.07,13.76,0,1.4,0,1.94.41,1.87,1.84C95,29,95,30.93,95,32.86Z"/><path d="M337.15,89.63c-3.81,6.87-9.51,9.07-16.48,9.29-10.05.33-16.58-4.6-18.61-14.55a33.23,33.23,0,0,1,.11-13.4c1.3-6.36,5.27-10.45,11.14-12.89,5.49-2.28,11.35-3.39,17-5,5.84-1.71,7.62-4.44,6.78-10.36-.57-4.05-2.67-6-7-6.55-4.08-.51-7.51,1.23-8.84,4.61a8.14,8.14,0,0,0-.82,3.64c.35,2.88-1,3.19-3.4,3.07-3.59-.17-7.21-.17-10.8,0-2.16.1-2.78-.57-2.62-2.72,1-13,7.54-19.85,20.75-21.06a49.85,49.85,0,0,1,16.1.93c9.19,2.17,14.11,7.62,14.31,17,.29,13.57.13,27.16.16,40.74,0,4.42.14,8.83,1.75,13,.56,1.46,0,1.69-1.26,1.68-4.77,0-9.55,0-14.32,0a2.1,2.1,0,0,1-2.33-1.71C338.3,93.68,337.83,92,337.15,89.63Z"/><path d="M145.36,67.47c0-8.9-.06-17.81,0-26.71,0-2-.3-2.93-2.59-2.78-2.11.13-4.91,1-6.24-.37s-.42-4.27-.45-6.49c-.08-5.86,0-5.84,5.86-5.87,3.86,0,3.31.48,3.39-3.5a64.22,64.22,0,0,1,.25-8.08c1.13-7.74,5-11.88,12.76-13.18,4.9-.81,9.87-.42,14.81-.18,1.09,0,1.36.53,1.35,1.5,0,3.41-.05,6.83,0,10.25,0,1.3-.6,1.34-1.66,1.36-8.44.18-9.51,1.43-9,10,.08,1.38.49,1.9,1.89,1.85,2.34-.08,4.68,0,7,0,1.26,0,1.78.39,1.75,1.7q-.09,4.71,0,9.44c0,1.32-.53,1.71-1.77,1.67-2.07-.06-4.15.13-6.2,0s-2.72.6-2.71,2.7c.08,16.46,0,32.91,0,49.37,0,1.71-.06,3.42,0,5.13.06,1.36-.4,1.91-1.84,1.89-5-.07-9.9-.1-14.84,0-2,0-1.9-1-1.9-2.38C145.37,85.63,145.36,76.55,145.36,67.47Z"/><path d="M293.74,61.07c0,11.16-.05,22.31.05,33.47,0,2-.53,2.64-2.56,2.57-4.59-.15-9.19-.12-13.78,0-1.81,0-2.49-.4-2.48-2.36q.11-33.61,0-67.21c0-1.76.49-2.35,2.28-2.31,4.68.11,9.36.15,14,0,2.16-.08,2.49.76,2.48,2.66C293.7,38.94,293.74,50,293.74,61.07Z"/><path d="M181.55,61.34c0-11.15.06-22.3-.05-33.45,0-2.18.65-2.75,2.74-2.68,4.49.15,9,.14,13.49,0,1.94-.06,2.41.62,2.41,2.45q-.09,33.45,0,66.91c0,2-.62,2.59-2.6,2.53-4.5-.14-9-.15-13.5,0-2.06.07-2.56-.59-2.54-2.58C181.6,83.47,181.55,72.41,181.55,61.34Z"/><path d="M191.18.88c2.33,0,4.67.06,7,0,1.33,0,2,.27,1.94,1.77-.08,4-.07,8.08,0,12.12,0,1.35-.37,1.93-1.83,1.91-4.94-.07-9.89-.08-14.83,0-1.6,0-2-.62-1.93-2.07q.1-5.92,0-11.86c0-1.39.39-1.92,1.83-1.87C186,.94,188.57.88,191.18.88Z"/><path d="M284.36,16.62c-2.34,0-4.68-.08-7,0-1.65.07-2.44-.29-2.37-2.2.14-3.86.1-7.73,0-11.6,0-1.51.43-2,2-2q7.43.14,14.86,0c1.58,0,2,.56,1.95,2-.08,4-.07,7.91,0,11.87,0,1.38-.41,1.94-1.83,1.89C289.41,16.56,286.88,16.62,284.36,16.62Z"/><path class="cls-1" d="M37,19.35c2.91,13.5,5.75,26.74,8.64,40,.3,1.37-.11,1.77-1.42,1.76q-7.41,0-14.83,0c-1.26,0-1.77-.29-1.46-1.71,2.82-13,5.58-26,8.37-38.93C36.38,20.12,36.67,19.86,37,19.35Z"/><path class="cls-1" d="M248,62.72a55.29,55.29,0,0,1-1.23,14.37c-.82,3.23-2.14,6.15-5.7,7.25-4.61,1.41-8.7-.77-10.36-5.67C229.18,74.2,229,69.52,229,64.84c-.07-6.55-.29-13.13,1.25-19.57,1.45-6,5.54-8.7,10.79-7.22,3,.85,4.49,3.12,5.37,5.89C248.16,49.6,248,55.46,248,62.72Z"/><path class="cls-1" d="M337.25,61.4c0,6,.55,11.41-.3,16.72s-7,9.15-12.26,8A5.78,5.78,0,0,1,321,83.64a12,12,0,0,1,6-18C330.29,64.51,333.77,63.93,337.25,61.4Z"/></g></g></svg>