<svg xmlns="http://www.w3.org/2000/svg" viewBox="0 0 302.72 86.03"><defs><style>.cls-1{fill:#fff;}</style></defs><g id="Capa_2" data-name="Capa 2"><g id="Capa_1-2" data-name="Capa 1"><path class="cls-1" d="M200.33,80.18c-.85,0-1.69,0-2.54,0-.38,0-.58,0-.57-.51q0-7.52,0-15c0-.48.18-.52.57-.52,1.23,0,2.46,0,3.68,0,.53,0,.74.13.86.68.86,3.84,1.76,7.68,2.65,11.55a2.24,2.24,0,0,0,.39-1.17q1.2-5.18,2.36-10.34c.11-.53.29-.76.9-.73,1.19.06,2.4,0,3.6,0,.38,0,.57,0,.57.52q0,7.52,0,15c0,.49-.19.52-.57.51-.85,0-1.69,0-2.54,0a1.45,1.45,0,0,1-.09-.87V68.76a1.81,1.81,0,0,0-.08-.8h-.05a.58.58,0,0,0-.1.12c-.87,3.84-1.76,7.67-2.6,11.52-.11.49-.29.61-.75.59a14.25,14.25,0,0,0-2,0c-.53,0-.73-.12-.85-.66-.83-3.82-1.7-7.63-2.56-11.45L200.6,68c0-.07-.07-.11-.09-.08a1.39,1.39,0,0,0-.09.78V79.31C200.42,79.6,200.51,79.91,200.33,80.18Z"/><path class="cls-1" d="M176.07,74.92c0-3.41,0-6.73,0-10,0-.62.14-.81.76-.75a12,12,0,0,0,1.8,0c.51,0,.63.12.63.63,0,3.49,0,7,0,10.47,0,1.44,0,2.89,0,4.33,0,.58-.19.67-.69.65a17.53,17.53,0,0,0-2.05,0,1,1,0,0,1-1-.59c-1.9-3.37-3.83-6.71-5.75-10.06a.77.77,0,0,0-.38-.46v5.5c0,1.66,0,3.33,0,5,0,.52-.14.65-.64.62a16,16,0,0,0-2,0c-.41,0-.57-.07-.57-.53q0-7.53,0-15c0-.4.12-.51.51-.5.79,0,1.58,0,2.37,0a1,1,0,0,1,1,.58c1.79,3.21,3.62,6.39,5.43,9.58C175.68,74.49,175.73,74.74,176.07,74.92Z"/><path class="cls-1" d="M299.44,75v-.77c0-3.13,0-6.27,0-9.4,0-.55.15-.71.67-.66.81.08,1.86-.33,2.36.17s.11,1.5.11,2.28c0,4.31,0,8.61,0,12.91,0,.56-.12.76-.7.72-.87-.06-1.88.23-2.58-.12s-.93-1.4-1.37-2.14l-4.79-8.35c-.1-.18-.21-.35-.43-.7v3.85c0,2.29,0,4.58,0,6.86,0,.45-.09.64-.57.6a19,19,0,0,1-2.5-.1c0-.78-.05-1.57-.05-2.35,0-4.31,0-8.61,0-12.92,0-.56.12-.8.7-.71a2.26,2.26,0,0,0,.82,0c1.59-.34,2.39.43,3.1,1.8,1.48,2.87,3.15,5.65,4.74,8.46l.37.59Z"/><path class="cls-1" d="M136.94,68.9a4,4,0,0,0-.49,0c-.68.11-1.2,0-1.28-.84a1.14,1.14,0,0,0-.3-.56c-1-1.31-4.1-1.41-5.2-.18a1.47,1.47,0,0,0,.51,2.42,25,25,0,0,0,4.09,1.12,16.9,16.9,0,0,1,2.11.59,4.43,4.43,0,0,1,1.56,7.2,5.39,5.39,0,0,1-2.54,1.56,10,10,0,0,1-6.18-.19A4.83,4.83,0,0,1,125.87,76c-.08-.52,0-.82.63-.77a15.43,15.43,0,0,0,2,0c.42,0,.57.13.64.51a2.51,2.51,0,0,0,2.43,2,6.68,6.68,0,0,0,2.67-.15,2.4,2.4,0,0,0,1-.53,1.57,1.57,0,0,0-.35-2.69,14.15,14.15,0,0,0-3.21-.89,26.15,26.15,0,0,1-2.6-.68,4.44,4.44,0,0,1-2.16-7,5.27,5.27,0,0,1,3.83-2.09A7.57,7.57,0,0,1,137,65.23a4.73,4.73,0,0,1,1.56,3.13c.06.45-.08.59-.51.55A11,11,0,0,0,136.94,68.9Z"/><path class="cls-1" d="M147.46,3.88V9.57c0,2,0,4.09,0,6.13,0,.48-.05.72-.64.7-1.44,0-1.44,0-1.44-1.45,0-4.58,0-9.16,0-13.73,0-.69.2-.8.85-.87a2.42,2.42,0,0,1,2.68,1.49c2.08,3.57,4.3,7.06,6.46,10.58.12.2.27.39.51.75V11.51c0-3.46,0-6.92,0-10.38,0-.61.14-.79.77-.77,1.37,0,1.37,0,1.37,1.38,0,4.63,0,9.26,0,13.9,0,.6-.14.71-.75.78a2.51,2.51,0,0,1-2.74-1.53c-2.11-3.55-4.36-7-6.55-10.52-.12-.18-.24-.36-.35-.54Z"/><path class="cls-1" d="M137.12,44.84c0-3.92,0-7.85,0-11.77,0-.65.16-.83.8-.8,1.32,0,1.32,0,1.32,1.35V47.44c0,1,.1.74-.88.87a2.26,2.26,0,0,1-2.49-1.39c-2.1-3.52-4.33-7-6.5-10.46a2.65,2.65,0,0,0-.62-.71v.76c0,3.68,0,7.36,0,11,0,.63-.16.77-.77.75-1.35,0-1.35,0-1.35-1.36,0-4.64,0-9.27,0-13.9,0-.6.13-.72.74-.79a2.54,2.54,0,0,1,2.82,1.53c2.09,3.6,4.33,7.11,6.52,10.65.09.16.2.31.3.46Z"/><path class="cls-1" d="M221.94,44.87v-.82c0-3.65,0-7.3,0-10.95,0-.7.2-.86.86-.83,1.22,0,1.23,0,1.23,1.19,0,4.69,0,9.37,0,14.06,0,.66-.22.73-.81.8a2.39,2.39,0,0,1-2.57-1.39c-2.25-3.78-4.62-7.48-7-11.3a1.9,1.9,0,0,0-.12,1c0,3.65,0,7.3,0,10.95,0,.57-.13.74-.71.72-1.38,0-1.38,0-1.38-1.42,0-4.6,0-9.21,0-13.81,0-.65.2-.74.8-.82A2.47,2.47,0,0,1,215,33.79c2.08,3.54,4.29,7,6.45,10.49C221.55,44.48,221.6,44.73,221.94,44.87Z"/><path class="cls-1" d="M190.76,8.37c0-2.43,0-4.85,0-7.28,0-.58.17-.73.74-.72,3.38,0,6.77,0,10.15,0,.58,0,.73.16.72.72,0,1.31,0,1.31-1.34,1.31-2.49,0-5,0-7.45,0-.55,0-.7.14-.68.68,0,1.17,0,2.35,0,3.52,0,.53.16.62.65.62,2.46,0,4.91,0,7.37,0,.58,0,.8.1.77.74-.06,1.18,0,1.19-1.21,1.19-2.27,0-4.53,0-6.8,0-.58,0-.82.09-.79.75.06,1.3,0,2.62,0,3.92,0,.6.18.71.73.7,2.73,0,5.46,0,8.19,0,.59,0,.72.17.71.73,0,1.22,0,1.22-1.25,1.22-3.25,0-6.5,0-9.75,0-.6,0-.78-.13-.77-.75C190.78,13.22,190.76,10.8,190.76,8.37Z"/><path class="cls-1" d="M232.58,0a6.92,6.92,0,0,1,3.59,1,4.33,4.33,0,0,1,2,3.71c0,.33-.09.46-.41.42h-.25a3.36,3.36,0,0,1-1.28-.07c-.35-.17-.24-.73-.37-1.11a2.71,2.71,0,0,0-1.73-1.73,5.68,5.68,0,0,0-3.53-.07,2.47,2.47,0,0,0-1.68,1.76,1.93,1.93,0,0,0,1.22,2.5,39.22,39.22,0,0,0,4.25,1.15c.4.1.8.19,1.18.32a3.86,3.86,0,0,1,3.06,3.59,4.2,4.2,0,0,1-2.51,4.6,8.39,8.39,0,0,1-6.59.32,5,5,0,0,1-3.32-4.61c0-.4.06-.64.52-.55h.16a3.79,3.79,0,0,1,1.22,0c.45.17.22.72.33,1.09a3.26,3.26,0,0,0,2.41,2.42,6.17,6.17,0,0,0,4-.22,2.45,2.45,0,0,0,1.55-3,1.92,1.92,0,0,0-1.15-1.38,17.33,17.33,0,0,0-3.28-1c-.77-.2-1.54-.36-2.29-.61a4.05,4.05,0,0,1-2.13-6.46C228.72.46,230.43,0,232.58,0Z"/><path class="cls-1" d="M290.73,40.31c0-2.46,0-4.91,0-7.36,0-.55.15-.68.68-.68,3.41,0,6.82,0,10.24,0,.53,0,.69.14.68.68,0,1.3,0,1.3-1.27,1.3-2.49,0-5,0-7.45,0-.64,0-.78.18-.75.78,0,1.17,0,2.34,0,3.51,0,.48.15.59.6.59,2.52,0,5,0,7.54,0,.52,0,.63.14.62.63,0,1.23,0,1.23-1.25,1.23-2.26,0-4.53,0-6.79,0-.58,0-.74.15-.72.72,0,1.36,0,2.73,0,4.09,0,.46.13.59.59.58,2.75,0,5.51,0,8.27,0,.58,0,.81.09.78.74-.05,1.24,0,1.24-1.24,1.24-3.28,0-6.55,0-9.83,0-.57,0-.71-.15-.7-.72C290.75,45.16,290.73,42.73,290.73,40.31Z"/><path class="cls-1" d="M126.8,6.1c0-1.95,0-3.56,0-5.17,0-.41.09-.55.54-.56C129,.34,129,.32,129,2c0,2.64,0,5.29,0,7.93a10,10,0,0,0,.09,1.55c.26,1.51.91,2.8,2.5,3.22a4.37,4.37,0,0,0,4.61-1.06,4.69,4.69,0,0,0,1-3.37c0-3,0-6,0-9.07,0-.7.19-.87.86-.84,1.37,0,1.37,0,1.37,1.36,0,2.64,0,5.28,0,7.93a13.25,13.25,0,0,1-.21,2.44c-.56,3-2.46,4.59-5.65,4.75a8.83,8.83,0,0,1-2.35-.2A5.26,5.26,0,0,1,127,11.88,55.4,55.4,0,0,1,126.8,6.1Z"/><path class="cls-1" d="M268,73.63c0,2,0,4,0,6,0,.43-.07.63-.57.6a19.44,19.44,0,0,0-2.29,0c-.55,0-.6-.19-.6-.65,0-3.9,0-7.79,0-11.69,0-1.06.12-.88-.92-.89s-2.23,0-3.35,0c-.38,0-.54-.08-.51-.49a11,11,0,0,0,0-1.72c-.06-.58.21-.64.7-.64,3.52,0,7,0,10.56,0,.56,0,1.3-.25,1.62.13s.1,1,.1,1.58c0,1.11,0,1.11-1.1,1.11s-2,0-3,0c-.51,0-.65.12-.64.63C268,69.6,268,71.61,268,73.63Z"/><path class="cls-1" d="M176.4,37.06c-.22.12-.44,0-.65.08A1.51,1.51,0,0,1,173.84,36c-1.08-2.75-4.93-2.71-6.75-1.38a5.12,5.12,0,0,0-2,3.25,9.8,9.8,0,0,0,.36,6,4.51,4.51,0,0,0,4.58,2.9,4.32,4.32,0,0,0,4.08-3.2c.41-1.2.41-1.2,1.69-1.19h.73A6.67,6.67,0,0,1,169,48.68a6.34,6.34,0,0,1-5.79-4.55,11.21,11.21,0,0,1,0-7.6,6.9,6.9,0,0,1,7.41-4.66A6,6,0,0,1,176,35.5,4,4,0,0,1,176.4,37.06Z"/><path class="cls-1" d="M179,13.71c1.4-4.2,2.81-8.36,4.17-12.53.2-.64.46-.9,1.13-.81a11.71,11.71,0,0,0,1.45,0c.17.33,0,.57-.13.8C183.82,6,182,10.86,180.3,15.71a.86.86,0,0,1-1,.69c-1.63,0-1.63,0-2.18-1.52q-2.49-6.85-5-13.71c-.29-.78-.28-.78.53-.79,1.61,0,1.61,0,2.13,1.54q1.95,5.76,3.88,11.51C178.74,13.52,178.73,13.64,179,13.71Z"/><path class="cls-1" d="M278.8,72.08c0-2.42,0-4.84,0-7.26,0-.58.15-.75.72-.7a12.82,12.82,0,0,0,2,0c.6-.05.71.19.7.74,0,3.18,0,6.36,0,9.55,0,1.71,0,3.43,0,5.14,0,.58-.21.68-.71.65a13,13,0,0,0-1.87,0c-.61,0-.83-.1-.82-.77C278.83,77,278.8,74.53,278.8,72.08Z"/><path class="cls-1" d="M248.09,40.26c0-2.42,0-4.85,0-7.27,0-.58.15-.73.72-.72,1.47,0,1.47,0,1.47,1.43,0,4,0,8,0,11.93,0,.58.15.72.72.71,2.23,0,4.47,0,6.7,0,.52,0,.64.14.63.64,0,1.34,0,1.34-1.31,1.34-2.72,0-5.45,0-8.18,0-.64,0-.75-.19-.75-.78,0-2.42,0-4.84,0-7.27Z"/><path class="cls-1" d="M184.92,40.27c0,2.45,0,4.9,0,7.36,0,.53-.14.68-.68.67-1.57,0-1.57,0-1.57-1.56,0-4.55,0-9.1,0-13.66,0-.62.14-.84.8-.81,1.46,0,1.46,0,1.46,1.46Z"/><path class="cls-1" d="M166.85,8.38c0,2.43,0,4.85,0,7.27,0,.65-.18.77-.77.75-1.46,0-1.46,0-1.46-1.42,0-4.61,0-9.21,0-13.81,0-.63.14-.83.79-.8,1.43,0,1.44,0,1.44,1.48Z"/><path class="cls-1" d="M247.05,8.37c0,2.45,0,4.91,0,7.36,0,.53-.13.68-.67.67-1.52,0-1.52,0-1.52-1.52,0-4.58,0-9.16,0-13.74,0-.6.12-.8.76-.78,1.44,0,1.44,0,1.44,1.47Z"/><path class="cls-1" d="M278.66,62.55l1.94-3a.5.5,0,0,1,.48-.23h3c-1,1.06-2,2.09-3,3.13-.22.23-.51.12-.77.13C279.82,62.56,279.32,62.55,278.66,62.55Z"/><path class="cls-1" d="M209.37,68.09c-.07-.31.16-.54.28-.82V79.86c0,.11,0,.21,0,.32-.35-.16-.19-.47-.19-.71,0-3.62,0-7.25,0-10.87C209.52,68.42,209.58,68.22,209.37,68.09Z"/><path class="cls-1" d="M200.33,80.18c0-1.68,0-3.36,0-5,0-2.28,0-4.56,0-6.84a4.5,4.5,0,0,1,.07-1c.08.28.29.51.24.82-.23.16-.14.39-.14.6,0,3.62,0,7.24,0,10.86C200.52,79.76,200.66,80.05,200.33,80.18Z"/><path class="cls-1" d="M95.28,1.26c0-.68-.22-.78-.82-.78C86.73.5,79,.46,71.28.5A64.45,64.45,0,0,0,57.16,2c-3.46.8-6.84,1.83-9.55,4.32A16,16,0,0,0,41.16,2.8,59.41,59.41,0,0,0,23.88.51C16.19.45,8.49.5.79.47.14.47,0,.65,0,1.27q0,39,0,78c0,.67.13.85.83.85,6.49,0,13,0,19.49,0a105.57,105.57,0,0,1,14.44.8,34,34,0,0,1,9,2.29A8.3,8.3,0,0,1,47.62,86a7.43,7.43,0,0,1,3-2.48,23.65,23.65,0,0,1,5.47-1.9,74.85,74.85,0,0,1,16.49-1.58c7.29-.06,14.58,0,21.87,0,.59,0,.83-.08.83-.77Q95.25,40.28,95.28,1.26ZM79.39,63.43c0,.58-.17.71-.74.71-3.57,0-7.15-.1-10.72.1A54.51,54.51,0,0,0,54.1,66.47,15.4,15.4,0,0,0,47.63,70a14,14,0,0,0-5.57-3.26,47.18,47.18,0,0,0-11.34-2.29,137.42,137.42,0,0,0-14.06-.34c-.6,0-.77-.12-.77-.74q0-23.15,0-46.29c0-.6.11-.78.74-.77,4.12.05,8.24-.07,12.36.21A49.78,49.78,0,0,1,42.78,19a11.16,11.16,0,0,1,4.13,2.4,2.78,2.78,0,0,1,.66.87C49.48,19.82,52.23,19,55,18.19a55.78,55.78,0,0,1,11.14-1.63c4.16-.28,8.34-.18,12.51-.21.56,0,.73.12.73.71Q79.36,40.24,79.39,63.43Z"/><path class="cls-1" d="M253.65,79.62a2,2,0,0,1-.54-1.57l0-2.21a3.19,3.19,0,0,0-1.89-3.31,4.28,4.28,0,0,0,2.3-4.67,4.36,4.36,0,0,0-4.58-3.72c-2.48,0-5,0-7.45,0-.64,0-.76.18-.76.78,0,4.14,0,8.28,0,12.43,0,.79,0,1.58,0,2.37,0,.39.11.52.51.51.73,0,1.47,0,2.21,0,.5,0,.64-.13.63-.64,0-1.69,0-3.38,0-5.07,0-.43.07-.63.57-.61,1,0,2,0,3,0,1.5.09,2,.59,2,2.09,0,.22,0,.44,0,.66a15.27,15.27,0,0,0,.27,3.08c.08.31.19.46.54.45,1,0,1.91,0,2.87,0,.15,0,.34.08.42-.13A.37.37,0,0,0,253.65,79.62Zm-5.26-8.48c-1.33.1-2.67,0-4,0-.32,0-.33-.17-.33-.41,0-1.14,0-2.29,0-3.43,0-.33.11-.43.42-.42.63,0,1.26,0,1.89,0v0c.65,0,1.31,0,2,0A1.83,1.83,0,0,1,250.14,69C250.16,70.35,249.65,71.05,248.39,71.14Z"/><path class="cls-1" d="M154.39,64.51a.52.52,0,0,0-.6-.39c-.9,0-1.8,0-2.7,0a.78.78,0,0,0-.92.64c-1.11,3.21-2.26,6.4-3.4,9.6-.68,1.92-1.37,3.83-2.08,5.83,1.06,0,2,0,3,0,.44,0,.61-.15.72-.55.21-.76.5-1.5.71-2.26a.59.59,0,0,1,.68-.51q2.42,0,4.83,0c.39,0,.58.1.69.5.21.79.52,1.55.74,2.33a.53.53,0,0,0,.61.49c1,0,2.07,0,3.23,0C158.05,74.9,156.21,69.71,154.39,64.51Zm-3.58,9.61c-.53,0-.5-.21-.38-.58.61-1.83,1.2-3.65,1.87-5.67.68,2.16,1.32,4.16,2,6.24C153,74.11,151.92,74.09,150.81,74.12Z"/><path class="cls-1" d="M232.77,75.91c-1.31-3.71-2.63-7.42-3.91-11.15a.78.78,0,0,0-.92-.64,23.72,23.72,0,0,1-2.53,0c-.52,0-.7.18-.85.62-.93,2.67-1.89,5.32-2.84,8-.88,2.46-1.75,4.91-2.67,7.47,1.11,0,2.09,0,3.07,0,.42,0,.56-.16.67-.52.23-.78.52-1.54.75-2.33a.55.55,0,0,1,.62-.47c1.64,0,3.27,0,4.91,0,.42,0,.56.17.66.54.22.78.51,1.54.74,2.33.09.31.2.45.55.44h3.26Zm-8.14-1.82c.67-2.06,1.32-4.06,2-6.23.69,2.15,1.34,4.16,2,6.23Z"/><path class="cls-1" d="M205.39,36.32a6.34,6.34,0,0,0-4-4,9.83,9.83,0,0,0-2.64-.47,7.2,7.2,0,0,0-7.79,5.23,11,11,0,0,0-.4,4.76c.54,4.19,3.12,6.88,7.55,6.9a7.2,7.2,0,0,0,7.31-4.93A10.75,10.75,0,0,0,205.39,36.32Zm-1.63,3.61a9.32,9.32,0,0,1-.64,3.58A5.35,5.35,0,0,1,193,42.76a9.3,9.3,0,0,1,.1-5.07,5.39,5.39,0,0,1,10.49.62A5.38,5.38,0,0,1,203.76,39.93Z"/><path class="cls-1" d="M221.21,15.89a2,2,0,0,1-.6-1.38,17,17,0,0,1-.12-2.36c0-1.51-.15-2.92-1.86-3.59l.28-.21.2-.14a4.23,4.23,0,0,0,1.58-4.5,3.64,3.64,0,0,0-3-3.07,8,8,0,0,0-1.94-.26c-2.21,0-4.42,0-6.63,0-.67,0-.79.2-.79.82,0,4.55,0,9.1,0,13.65,0,1.59,0,1.56,1.55,1.57.53,0,.62-.16.62-.64,0-1.88,0-3.76,0-5.64,0-.32,0-.59.44-.58,1.67,0,3.33,0,5,.07s2.19.68,2.32,2.34c.1,1.25.17,2.5.24,3.75,0,.48.17.75.74.7s1.14,0,1.72,0c.14,0,.35.08.4-.15A.33.33,0,0,0,221.21,15.89Zm-4.67-8.3a5.74,5.74,0,0,1-1.37.13h-4.08c-.31,0-.58,0-.57-.44q0-2.28,0-4.56c0-.4.19-.44.5-.43h2.61v0c.85,0,1.69,0,2.53,0a2.27,2.27,0,0,1,2.36,2.21C218.66,6.33,218.08,7.22,216.54,7.59Z"/><path class="cls-1" d="M284.44,37.57c-.82-3.56-3.06-5.29-6.72-5.29h-5.15c-1.08,0-.89,0-.89.86,0,2.37,0,4.74,0,7.11s0,4.85,0,7.28c0,.57.09.79.75.78,1.9-.06,3.82,0,5.73,0a5.75,5.75,0,0,0,5.61-3.62A10.92,10.92,0,0,0,284.44,37.57Zm-2.69,6.26a3.74,3.74,0,0,1-3.56,2.53c-1.28,0-2.56,0-3.84,0-.45,0-.47-.2-.47-.54,0-1.85,0-3.7,0-5.56s0-3.7,0-5.55c0-.47.13-.59.59-.58,1.25,0,2.51,0,3.76,0a3.76,3.76,0,0,1,3.57,2.52A9.29,9.29,0,0,1,281.75,43.83Z"/><path class="cls-1" d="M302.19,4.89A6.11,6.11,0,0,0,296,.38c-1.88,0-3.77,0-5.65,0-.57,0-.73.15-.72.72,0,2.4,0,4.8,0,7.2s0,5,0,7.44c0,.54.15.68.68.67,2,0,3.93,0,5.89,0A5.62,5.62,0,0,0,301.62,13,10.91,10.91,0,0,0,302.19,4.89Zm-2.37,6.84a3.93,3.93,0,0,1-4,2.77c-1.09,0-2.18,0-3.27,0-.53,0-.7-.1-.69-.66,0-1.83,0-3.65,0-5.48s0-3.6,0-5.4c0-.49.07-.72.65-.69,1.14.05,2.29,0,3.43,0a3.93,3.93,0,0,1,4,2.93A9.44,9.44,0,0,1,299.82,11.73Z"/><path class="cls-1" d="M265.89,4.91A5.79,5.79,0,0,0,260.48.44C258.25.3,256,.4,253.77.38c-.44,0-.38.27-.38.54q0,7.47,0,15c0,.45.15.53.56.52,1.09,0,2.18,0,3.27,0s1.91,0,2.87,0a5.48,5.48,0,0,0,5-2.94A10.73,10.73,0,0,0,265.89,4.91Zm-2.36,6.85a3.94,3.94,0,0,1-4.09,2.74c-1.07,0-2.13,0-3.19,0-.52,0-.71-.12-.7-.67,0-1.83,0-3.65,0-5.47s0-3.65,0-5.47c0-.42.05-.65.56-.63,1.23,0,2.45,0,3.68,0A3.89,3.89,0,0,1,263.54,5,9.44,9.44,0,0,1,263.53,11.76Z"/><path class="cls-1" d="M158.3,47.79l-5-13.87c-.59-1.65-.59-1.61-2.34-1.66a.92.92,0,0,0-1,.75c-1,2.73-2,5.45-3,8.17-.87,2.34-1.75,4.67-2.67,7.11.68,0,1.22,0,1.77,0,.39,0,.56-.11.69-.49.42-1.26.91-2.5,1.34-3.76a.67.67,0,0,1,.75-.54c1.69,0,3.39,0,5.08,0a.7.7,0,0,1,.8.58c.42,1.26.88,2.51,1.3,3.77.09.26.15.45.48.44.66,0,1.33,0,2.06,0Zm-9.44-6.1L151.28,35l.14,0,2.36,6.75Z"/><path class="cls-1" d="M284.77,16l-5-14c-.58-1.6-.59-1.57-2.28-1.62a1,1,0,0,0-1.09.79c-1.13,3.11-2.3,6.2-3.46,9.3l-2.23,5.94c.63,0,1.17,0,1.71,0s.61-.13.75-.53c.39-1.19.88-2.34,1.25-3.53.18-.59.48-.72,1-.7,1,0,2.07,0,3.11,0,.76,0,1.69-.23,2.23.12s.6,1.38.87,2.11c.07.18.12.36.2.54.28.64.24,1.59.8,1.88a5.61,5.61,0,0,0,2.27.07C284.83,16.19,284.81,16.09,284.77,16ZM275.3,9.82l2.42-6.72.14,0,2.37,6.75Z"/><path class="cls-1" d="M243.08,47.7q-2.51-6.89-5-13.78c-.19-.53-.26-1.29-.65-1.53s-1.16-.06-1.75-.12-.75.18-.93.65c-1.3,3.54-2.63,7.07-3.95,10.61L229,48.29c.66,0,1.24,0,1.81,0,.39,0,.51-.16.62-.47.44-1.29.91-2.56,1.36-3.84.11-.3.23-.49.62-.49,1.77,0,3.55,0,5.32,0a.54.54,0,0,1,.62.47,23.22,23.22,0,0,0,.81,2.3c.27.67.23,1.64.85,1.93a5.6,5.6,0,0,0,2.21,0C243.18,48.06,243.14,47.88,243.08,47.7Zm-5-6h-4.47l2.46-6.84a3.09,3.09,0,0,1,.48,1.13q.9,2.58,1.81,5.15C238.5,41.47,238.66,41.73,238.12,41.72Z"/></g></g></svg>